<svg version="1.1" xmlns="http://www.w3.org/2000/svg" xmlns:xlink="http://www.w3.org/1999/xlink" x="0px" y="0px"
	 width="24px" height="24px" viewBox="0 0 24 24" enable-background="new 0 0 24 24" xml:space="preserve">
<g>
	<g>
		<path d="M12.005,0.759C5.372,0.759,0,5.613,0,11.599c0,2.156,0.7,4.165,1.9,5.854c0.048,0.052,0.135,0.193,0.191,0.286
			c0.117,0.214,0.192,0.452,0.192,0.711c0,0.098-1.119,4.075-1.119,4.075c-0.081,0.308,0.132,0.625,0.475,0.701
			c0.051,0.016,0.1,0.016,0.151,0.016c0.081,0,0.156-0.016,0.23-0.034l0.102-0.043l3.164-1.544c0.056-0.028,0.562-0.248,0.625-0.273
			c0.212-0.084,0.451-0.128,0.702-0.128c0.224,0,0.444,0.034,0.644,0.105c0.005,0,0.012,0,0.012,0.007
			c0.031,0.016,0.062,0.021,0.095,0.034c1.444,0.555,3.027,0.724,4.696,0.724c6.63,0,11.941-4.502,11.941-10.487
			C24.008,5.613,18.636,0.759,12.005,0.759z M12,18.092c-0.736,0-1.333-0.596-1.333-1.333s0.597-1.333,1.333-1.333
			c0.74,0,1.333,0.596,1.333,1.333S12.74,18.092,12,18.092z M13.333,11.425c0,0.737-0.593,1.333-1.333,1.333
			c-0.736,0-1.333-0.596-1.333-1.333V6.092c0-0.737,0.597-1.333,1.333-1.333c0.74,0,1.333,0.596,1.333,1.333V11.425z"/>
	</g>
</g>
</svg>
