<svg xmlns="http://www.w3.org/2000/svg" xmlns:xlink="http://www.w3.org/1999/xlink" version="1.1" x="0px" y="0px" width="48px" height="48px" viewBox="0 0 48 48" enable-background="new 0 0 48 48" xml:space="preserve" class=" iconic-injected-svg svg-inject" focusable="false">
<g>
	<circle fill="inherit" cx="24" cy="24" r="3.353"></circle>
	<path fill="inherit" d="M41.227,25.486v-0.008C41.699,25.033,42,24.404,42,23.701c0-0.701-0.301-1.33-0.773-1.775V21.91   c-4.711-4.492-18.801-15.115-34.405,0.119v0.014C6.317,22.511,6,23.173,6,23.916c0,0.75,0.326,1.416,0.839,1.885   C11.713,30.589,25.857,41.494,41.227,25.486z M23.968,31.568c-4.183,0-7.571-3.389-7.571-7.57c0-4.182,3.389-7.57,7.571-7.57   c4.182,0,7.572,3.389,7.572,7.57C31.54,28.179,28.149,31.568,23.968,31.568z"></path>
</g>
</svg>