<svg version="1.1" xmlns="http://www.w3.org/2000/svg" xmlns:xlink="http://www.w3.org/1999/xlink" x="0px" y="0px"
	 width="24px" height="24px" viewBox="0 0 24 24" enable-background="new 0 0 24 24" xml:space="preserve">
<path d="M23.789,6.013c-0.358-1.219-1.151-2.486-2.234-3.567C20.023,0.914,18.175,0,16.608,0c-0.881,0-1.636,0.29-2.182,0.836
	c-0.733,0.732-0.99,1.831-0.74,3.083l-1.755,1.756c-1.309-0.683-2.571-1.04-3.691-1.04c-1.092,0-2.019,0.35-2.682,1.011
	C4.016,7.191,4.28,9.976,6.018,12.802l-5.839,9.409c-0.287,0.462-0.218,1.062,0.167,1.446C0.571,23.883,0.871,24,1.174,24
	c0.212,0,0.427-0.058,0.618-0.176l9.42-5.848c1.546,0.942,3.111,1.479,4.454,1.479c1.095,0,2.024-0.351,2.688-1.015
	c1.361-1.361,1.334-3.753-0.028-6.371l1.755-1.755c0.312,0.063,0.616,0.095,0.908,0.095l0,0c0.879,0,1.631-0.289,2.176-0.834
	C23.985,8.755,24.213,7.456,23.789,6.013z M4.808,19.194l2.712-4.37c0.252,0.289,0.515,0.577,0.797,0.859
	c0.279,0.28,0.567,0.546,0.858,0.8L4.808,19.194z M21.507,7.92c-0.121,0.122-0.35,0.147-0.519,0.147
	c-0.254,0-0.558-0.058-0.881-0.168l-0.69-0.235l-4.033,4.035l0.484,0.788c1.282,2.084,1.388,3.74,0.828,4.3
	c-0.218,0.217-0.563,0.327-1.031,0.327c-1.584,0-3.817-1.212-5.691-3.086C7.08,11.133,6.408,8.113,7.215,7.304
	C7.431,7.088,7.776,6.979,8.24,6.979c0.89,0,2.083,0.42,3.274,1.153l0.788,0.485l4.035-4.035l-0.235-0.69
	c-0.249-0.732-0.189-1.23-0.02-1.4c0.124-0.124,0.354-0.15,0.526-0.15c0.706,0,1.991,0.461,3.29,1.76
	c0.798,0.798,1.396,1.735,1.643,2.572C21.708,7.243,21.695,7.732,21.507,7.92z"/>
</svg>
