<svg xmlns="http://www.w3.org/2000/svg" xmlns:xlink="http://www.w3.org/1999/xlink" version="1.1" x="0px" y="0px" width="48px" height="48px" viewBox="0 0 48 48" enable-background="new 0 0 48 48" xml:space="preserve" class=" iconic-injected-svg svg-inject" focusable="false">
<g>
	<g>
		<path fill="inherit" d="M28.414,32.642c-0.085-0.084-0.143-0.145-0.17-0.174c-0.001-0.002-0.004-0.006-0.004-0.006    c-0.884-0.883-1.533-1.727-1.961-2.523c-0.123,0.088-0.226,0.232-0.287,0.438l-1.527,5.127c-0.176,0.588,0.151,0.895,0.728,0.682    l4.792-1.773c0.19-0.07,0.328-0.178,0.414-0.305C29.471,33.638,28.74,32.97,28.414,32.642z"></path>
		<path fill="inherit" d="M27.93,27.815c-0.021,0.254,0.057,1.236,1.942,3.121c0.367,0.396,1.544,1.447,2.467,1.463    c0.166,0.004,0.312-0.033,0.45-0.107l8.895-8.895c0.053-0.053,0.091-0.115,0.12-0.18c-1.085-0.465-1.952-1.254-2.317-1.619    c-0.086-0.086-0.143-0.146-0.17-0.178c-0.002-0.002-0.004-0.004-0.004-0.004c-1.012-1.012-1.719-1.973-2.133-2.869    c-0.077,0.029-0.152,0.068-0.214,0.133l-9.012,9.01C27.944,27.728,27.934,27.767,27.93,27.815z"></path>
		<path fill="inherit" d="M38.989,16.755c-0.022,0.256,0.058,1.238,1.94,3.123c0.368,0.396,1.545,1.445,2.467,1.463    c0.168,0.004,0.312-0.033,0.451-0.107l1.363-1.361c0.21-0.211,0.208-0.559-0.003-0.771l-3.947-3.947    c-0.212-0.211-0.56-0.211-0.771,0l-1.479,1.479C39.002,16.667,38.994,16.706,38.989,16.755z"></path>
	</g>
	<path fill="inherit" d="M34.218,33.031v5.558H12.33V8.966h12.672v7.404c0,0.818,0.663,1.482,1.48,1.482h7.735v1.468l2.962-2.825   v-0.126c0-0.807-0.329-1.58-0.913-2.141l-7.734-7.404c-0.552-0.527-1.286-0.822-2.05-0.822H12.33c-1.637,0-2.963,1.324-2.963,2.963   v29.623c0,1.637,1.326,2.963,2.963,2.963h21.888c1.637,0,2.962-1.326,2.962-2.963v-8.577L34.218,33.031z M27.964,10.384   l4.707,4.506h-4.707V10.384z"></path>
</g>
</svg>